<svg width="49" height="70" viewBox="0 0 49 70" fill="none" xmlns="http://www.w3.org/2000/svg">
<path d="M24.5 14C28.366 14 31.5 10.866 31.5 7C31.5 3.13401 28.366 0 24.5 0C20.634 0 17.5 3.13401 17.5 7C17.5 10.866 20.634 14 24.5 14Z" fill="#0F766E"/>
<path d="M49 38.5V31.5C43.61 31.57 38.185 28.875 34.755 25.095L30.24 20.09C29.645 19.425 28.91 18.9 28.105 18.515C28.07 18.515 28.07 18.48 28.035 18.48H28C26.775 17.78 25.375 17.43 23.835 17.57C20.16 17.885 17.5 21.14 17.5 24.815V45.5C17.5 49.35 20.65 52.5 24.5 52.5H42V70H49V50.75C49 46.9 45.85 43.75 42 43.75H31.5V31.675C36.015 35.42 42.875 38.465 49 38.5ZM17.5 63C11.69 63 7 58.31 7 52.5C7 47.915 9.94 44.065 14 42.595V35.35C6.02 36.96 0 44.03 0 52.5C0 62.16 7.84 70 17.5 70C25.97 70 33.04 63.98 34.65 56H27.405C25.97 60.06 22.085 63 17.5 63Z" fill="#0F766E"/>
</svg>
