<svg width="70" height="56" viewBox="0 0 70 56" fill="none" xmlns="http://www.w3.org/2000/svg">
<path d="M70 21V7C70 3.115 66.85 0 63 0H7C3.15 0 0.035 3.115 0.035 7V21C3.885 21 7 24.15 7 28C7 31.85 3.885 35 0 35V49C0 52.85 3.15 56 7 56H63C66.85 56 70 52.85 70 49V35C66.15 35 63 31.85 63 28C63 24.15 66.15 21 70 21ZM63 15.89C58.835 18.305 56 22.855 56 28C56 33.145 58.835 37.695 63 40.11V49H7V40.11C11.165 37.695 14 33.145 14 28C14 22.82 11.2 18.305 7.035 15.89L7 7H63V15.89ZM31.5 38.5H38.5V45.5H31.5V38.5ZM31.5 24.5H38.5V31.5H31.5V24.5ZM31.5 10.5H38.5V17.5H31.5V10.5Z" fill="#0F766E"/>
</svg>
