<svg width="77" height="77" viewBox="0 0 77 77" fill="none" xmlns="http://www.w3.org/2000/svg">
<path d="M0 73.43C0 75.39 1.575 76.965 3.535 76.965H49C50.96 76.965 52.535 75.39 52.535 73.43V70H0V73.43ZM26.25 27.965C13.125 27.965 0 35 0 49H52.5C52.5 35 39.375 27.965 26.25 27.965ZM9.17 42C13.055 36.575 21.315 34.965 26.25 34.965C31.185 34.965 39.445 36.575 43.33 42H9.17ZM0 56H52.5V63H0V56ZM59.5 14V0H52.5V14H35L35.805 21H69.265L64.365 70H59.5V77H65.52C68.46 77 70.875 74.725 71.225 71.855L77 14H59.5Z" fill="#0F766E"/>
</svg>
