<svg width="47" height="47" viewBox="0 0 47 47" fill="none" xmlns="http://www.w3.org/2000/svg">
<path d="M38.4784 46H8.52156C4.38193 46 1 42.6181 1 38.4784V8.52156C1 4.38193 4.38193 1 8.52156 1H38.4784C42.6181 1 46 4.38193 46 8.52156V38.4784C46 42.6366 42.6366 46 38.4784 46Z" stroke="white" stroke-width="2"/>
<path d="M15.3409 31.6777C17.5216 33.8584 20.423 35.0596 23.5093 35.0596C26.5955 35.0596 29.4785 33.8584 31.6777 31.6777C33.8584 29.497 35.0596 26.5955 35.0596 23.5093C35.0596 20.423 33.8584 17.5216 31.6777 15.3409C29.497 13.1602 26.5955 11.959 23.5093 11.959C20.423 11.959 17.5216 13.1602 15.3409 15.3409C13.1602 17.5216 11.959 20.423 11.959 23.5093C11.959 26.5955 13.1602 29.497 15.3409 31.6777Z" stroke="white" stroke-width="2"/>
<path d="M37.311 11.5794C38.5358 11.5794 39.5287 10.5864 39.5287 9.36164C39.5287 8.13683 38.5358 7.14392 37.311 7.14392C36.0862 7.14392 35.0933 8.13683 35.0933 9.36164C35.0933 10.5864 36.0862 11.5794 37.311 11.5794Z" stroke="white" stroke-width="2"/>
</svg>
