<svg width="185" height="92" fill="none" xmlns="http://www.w3.org/2000/svg"><path d="M11.567 27.038c-3.29 0-5.803-.91-7.536-2.73-1.714-1.821-2.57-4.407-2.57-7.758 0-1.665.262-3.147.788-4.445.526-1.317 1.246-2.42 2.162-3.312A8.949 8.949 0 0 1 7.682 6.73c1.266-.464 2.639-.697 4.119-.697.857 0 1.636.068 2.337.204a12.27 12.27 0 0 1 1.84.435c.526.155.964.32 1.315.494.35.175.603.31.759.407l-1.314 3.66c-.624-.329-1.354-.61-2.191-.842-.818-.232-1.753-.348-2.804-.348-.702 0-1.393.116-2.074.348a4.727 4.727 0 0 0-1.782 1.133c-.507.504-.915 1.162-1.227 1.976-.312.813-.467 1.801-.467 2.963 0 .93.097 1.801.292 2.615.214.794.545 1.482.993 2.063.467.58 1.07 1.046 1.81 1.394.74.33 1.637.494 2.688.494.662 0 1.256-.039 1.782-.116a16.74 16.74 0 0 0 1.402-.262 8.65 8.65 0 0 0 1.081-.377c.312-.136.594-.262.847-.378l1.256 3.631c-.643.388-1.548.736-2.716 1.046-1.169.31-2.522.465-4.06.465Z" fill="#0F766E"/><path d="M24.363 16.55c0 .988.117 1.879.35 2.673.254.794.604 1.482 1.052 2.063a4.855 4.855 0 0 0 1.694 1.307c.663.31 1.422.465 2.279.465.837 0 1.587-.155 2.25-.465a4.526 4.526 0 0 0 1.693-1.307c.468-.581.818-1.269 1.052-2.063.253-.794.38-1.685.38-2.673s-.127-1.879-.38-2.673c-.234-.813-.584-1.5-1.052-2.062a4.406 4.406 0 0 0-1.694-1.337c-.662-.31-1.412-.465-2.25-.465-.856 0-1.615.165-2.277.494a4.716 4.716 0 0 0-1.695 1.337c-.448.561-.798 1.249-1.051 2.063-.234.794-.35 1.675-.35 2.643Zm15.453 0c0 1.724-.263 3.244-.79 4.561-.506 1.298-1.207 2.392-2.102 3.284-.896.871-1.967 1.53-3.213 1.975-1.227.445-2.551.668-3.973.668-1.383 0-2.688-.223-3.914-.668a9.111 9.111 0 0 1-3.214-1.976c-.915-.89-1.635-1.985-2.161-3.282-.526-1.317-.789-2.838-.789-4.562 0-1.724.273-3.234.818-4.532.545-1.317 1.276-2.421 2.19-3.312a9.253 9.253 0 0 1 3.214-2.005 11.21 11.21 0 0 1 3.856-.668c1.383 0 2.687.223 3.914.668a8.91 8.91 0 0 1 3.213 2.005c.916.891 1.636 1.995 2.162 3.312.526 1.298.788 2.808.788 4.532Zm9.173-10.052c.35.64.75 1.433 1.197 2.382.468.93.945 1.947 1.431 3.05a107.557 107.557 0 0 1 1.49 3.342l1.373 3.225 1.373-3.225c.487-1.143.974-2.257 1.46-3.341.507-1.104.984-2.121 1.432-3.05.467-.95.876-1.744 1.227-2.383h4.148c.194 1.336.37 2.838.525 4.503.176 1.647.322 3.37.439 5.172.136 1.782.253 3.573.35 5.374a323.3 323.3 0 0 1 .292 5.084h-4.44a518.928 518.928 0 0 0-.233-6.391 171.68 171.68 0 0 0-.439-6.973c-.35.814-.74 1.714-1.168 2.702l-1.285 2.964c-.41.987-.809 1.936-1.198 2.847-.39.89-.72 1.656-.993 2.295h-3.184c-.273-.64-.604-1.404-.993-2.295-.39-.91-.799-1.86-1.227-2.847-.409-.988-.828-1.976-1.256-2.964-.428-.988-.818-1.888-1.169-2.702-.194 2.344-.34 4.668-.438 6.973a522.912 522.912 0 0 0-.233 6.392h-4.44c.078-1.589.165-3.283.262-5.085l.351-5.374c.136-1.802.282-3.525.438-5.172.175-1.665.36-3.167.555-4.503h4.353Zm26.215 0c.35.64.75 1.433 1.198 2.382.467.93.944 1.947 1.431 3.05a107.794 107.794 0 0 1 1.49 3.342l1.373 3.225 1.373-3.225c.486-1.143.973-2.257 1.46-3.341.506-1.104.984-2.121 1.431-3.05.468-.95.877-1.744 1.227-2.383h4.148c.195 1.336.37 2.838.526 4.503.175 1.647.321 3.37.438 5.172.136 1.782.253 3.573.35 5.374.117 1.802.215 3.496.293 5.084h-4.44a518.928 518.928 0 0 0-.234-6.391 171.86 171.86 0 0 0-.438-6.973c-.35.814-.74 1.714-1.169 2.702l-1.285 2.964c-.409.987-.808 1.936-1.198 2.847-.389.89-.72 1.656-.993 2.295h-3.184c-.272-.64-.603-1.404-.993-2.295-.39-.91-.798-1.86-1.227-2.847-.409-.988-.827-1.976-1.256-2.964-.428-.988-.818-1.888-1.168-2.702-.195 2.344-.34 4.668-.438 6.973a518.928 518.928 0 0 0-.234 6.392h-4.44c.078-1.589.166-3.283.263-5.085l.35-5.374c.137-1.802.283-3.525.439-5.172.175-1.665.36-3.167.555-4.503h4.352Zm28.757 20.54c-1.422 0-2.649-.193-3.681-.58-1.032-.407-1.889-.96-2.57-1.657a7.024 7.024 0 0 1-1.49-2.527c-.312-.988-.468-2.073-.468-3.254V6.498h4.557v12.144c0 .814.088 1.51.263 2.092.195.561.448 1.026.76 1.394.331.349.72.6 1.168.756.467.155.974.232 1.519.232 1.11 0 2.006-.339 2.687-1.017.701-.678 1.052-1.83 1.052-3.457V6.498h4.557V19.02c0 1.181-.166 2.266-.497 3.254a6.778 6.778 0 0 1-1.519 2.556c-.681.698-1.548 1.24-2.599 1.627-1.052.388-2.298.581-3.739.581Zm26.319-.407a100.92 100.92 0 0 0-4.235-6.827 69.567 69.567 0 0 0-4.849-6.362v13.19h-4.499V6.497h3.71c.643.64 1.354 1.424 2.132 2.353.779.93 1.568 1.927 2.367 2.993a76.212 76.212 0 0 1 2.424 3.283 145.663 145.663 0 0 1 2.249 3.254V6.498h4.528v20.133h-3.827Zm8.496-20.133h4.557v20.133h-4.557V6.498Zm24.257 0v3.864h-6.105v16.27h-4.557v-16.27h-6.105V6.498h16.767Zm11.346 8.28c.818-1.375 1.597-2.75 2.337-4.125a62.985 62.985 0 0 0 2.045-4.155h5.024c-1.11 2.17-2.259 4.27-3.447 6.304a163.28 163.28 0 0 1-3.768 6.13v7.7h-4.557V18.99a175.23 175.23 0 0 1-3.797-6.16 139.684 139.684 0 0 1-3.447-6.333h5.287a73.592 73.592 0 0 0 2.016 4.155c.72 1.375 1.49 2.75 2.307 4.125Z" fill="#000"/><path d="M7.857 52.227c.643 0 1.169-.048 1.578-.145.428-.117.769-.262 1.022-.436.253-.194.429-.416.526-.668.097-.252.146-.533.146-.843 0-.658-.312-1.2-.935-1.627-.623-.445-1.694-.92-3.213-1.423a28.14 28.14 0 0 1-1.986-.785 7.957 7.957 0 0 1-1.782-1.133 5.666 5.666 0 0 1-1.285-1.656c-.331-.658-.497-1.452-.497-2.382 0-.93.175-1.763.526-2.499a5.335 5.335 0 0 1 1.49-1.917c.642-.523 1.421-.92 2.336-1.191.916-.29 1.948-.436 3.097-.436 1.363 0 2.541.145 3.534.436.993.29 1.811.61 2.454.959l-1.315 3.573a11.384 11.384 0 0 0-1.898-.755c-.682-.233-1.51-.35-2.483-.35-1.09 0-1.88.156-2.366.466-.468.29-.701.745-.701 1.365 0 .368.087.678.263.93.175.252.418.484.73.697.331.194.701.378 1.11.552.428.155.896.32 1.402.494 1.052.387 1.967.775 2.746 1.162.779.368 1.421.804 1.928 1.308a4.702 4.702 0 0 1 1.168 1.772c.253.678.38 1.5.38 2.47 0 1.878-.662 3.34-1.986 4.386-1.325 1.027-3.32 1.54-5.989 1.54-.895 0-1.704-.058-2.424-.174a14.782 14.782 0 0 1-1.928-.378 12.154 12.154 0 0 1-1.431-.494 11.77 11.77 0 0 1-.993-.494l1.285-3.602c.604.329 1.344.63 2.22.9.896.252 1.986.378 3.271.378Z" fill="#15BEF0"/><path d="M28.569 56.091c-3.291 0-5.803-.91-7.537-2.731-1.713-1.82-2.57-4.406-2.57-7.757 0-1.666.263-3.147.789-4.445.525-1.317 1.246-2.421 2.161-3.312a8.948 8.948 0 0 1 3.272-2.063c1.266-.465 2.639-.697 4.118-.697.857 0 1.636.068 2.337.203a12.27 12.27 0 0 1 1.84.436c.526.155.965.32 1.315.494s.604.31.76.407l-1.315 3.66c-.623-.329-1.353-.61-2.19-.842-.819-.233-1.753-.349-2.805-.349-.701 0-1.392.116-2.074.349a4.728 4.728 0 0 0-1.782 1.133c-.506.504-.915 1.162-1.227 1.976-.311.813-.467 1.8-.467 2.963 0 .93.097 1.801.292 2.615.214.794.545 1.481.993 2.062.468.581 1.071 1.046 1.811 1.395.74.33 1.636.494 2.688.494.662 0 1.256-.039 1.782-.117.525-.077.993-.164 1.402-.261.409-.116.769-.242 1.08-.378.312-.135.594-.261.848-.377l1.256 3.631c-.643.388-1.548.736-2.717 1.046-1.168.31-2.522.465-4.06.465Zm9.71-20.54h4.557v20.133H38.28V35.551Zm9.243 20.133V35.551h13.67v3.806H52.08v3.95h8.091v3.72h-8.091v4.851h9.785v3.806H47.522Zm31.297 0a101.24 101.24 0 0 0-4.235-6.827 69.428 69.428 0 0 0-4.85-6.363v13.19h-4.498V35.551h3.71c.643.639 1.353 1.423 2.132 2.353a70.48 70.48 0 0 1 2.366 2.992 75.856 75.856 0 0 1 2.425 3.283 144.592 144.592 0 0 1 2.25 3.254V35.551h4.527v20.133h-3.827Zm17.727.407c-3.291 0-5.803-.91-7.536-2.731-1.714-1.82-2.57-4.406-2.57-7.757 0-1.666.262-3.147.788-4.445.526-1.317 1.246-2.421 2.162-3.312a8.948 8.948 0 0 1 3.271-2.063c1.266-.465 2.639-.697 4.119-.697.857 0 1.636.068 2.337.203a12.28 12.28 0 0 1 1.84.436c.526.155.964.32 1.314.494.351.174.604.31.76.407l-1.315 3.66c-.623-.329-1.353-.61-2.19-.842-.818-.233-1.753-.349-2.805-.349-.7 0-1.392.116-2.074.349a4.729 4.729 0 0 0-1.782 1.133c-.506.504-.915 1.162-1.226 1.976-.312.813-.468 1.8-.468 2.963 0 .93.098 1.801.292 2.615.215.794.546 1.481.994 2.062.467.581 1.07 1.046 1.81 1.395.74.33 1.636.494 2.688.494.662 0 1.256-.039 1.782-.117.526-.077.993-.164 1.402-.261a8.687 8.687 0 0 0 1.081-.378c.311-.135.594-.261.847-.377l1.256 3.631c-.643.388-1.548.736-2.717 1.046-1.168.31-2.521.465-4.06.465Zm9.711-.407V35.551h13.67v3.806h-9.114v3.95h8.092v3.72h-8.092v4.851h9.786v3.806h-14.342Z" fill="#000"/><path d="M7.711 64.603c.35.64.75 1.434 1.198 2.383.467.93.944 1.946 1.431 3.05a107.67 107.67 0 0 1 1.49 3.341l1.373 3.225a5768.2 5768.2 0 0 1 1.373-3.225c.487-1.142.973-2.256 1.46-3.34.507-1.105.984-2.122 1.432-3.051.467-.95.876-1.743 1.227-2.383h4.147a88.83 88.83 0 0 1 .526 4.504c.176 1.646.322 3.37.438 5.17.137 1.783.253 3.574.35 5.376.118 1.8.215 3.496.293 5.084h-4.44a518.856 518.856 0 0 0-.234-6.392c-.097-2.305-.243-4.629-.438-6.972-.35.813-.74 1.714-1.168 2.702l-1.285 2.963c-.41.988-.809 1.937-1.198 2.847-.39.891-.72 1.656-.993 2.295h-3.184c-.273-.639-.604-1.404-.993-2.295-.39-.91-.799-1.86-1.227-2.847-.41-.988-.828-1.976-1.256-2.963-.429-.988-.818-1.889-1.169-2.702-.194 2.343-.34 4.667-.438 6.972a519.835 519.835 0 0 0-.234 6.392h-4.44c.078-1.588.166-3.283.263-5.084l.35-5.375c.137-1.801.283-3.525.439-5.171.175-1.666.36-3.167.555-4.504h4.352Z" fill="#F59E0B"/><path d="M36.468 85.144c-1.422 0-2.649-.194-3.68-.582-1.033-.406-1.89-.958-2.571-1.656a7.024 7.024 0 0 1-1.49-2.527c-.311-.988-.467-2.072-.467-3.254V64.603h4.557v12.144c0 .814.087 1.511.263 2.092.194.562.447 1.027.759 1.395.331.348.72.6 1.168.755a4.8 4.8 0 0 0 1.52.233c1.11 0 2.005-.34 2.687-1.017.7-.678 1.051-1.83 1.051-3.458V64.603h4.557v12.522c0 1.182-.165 2.266-.496 3.254a6.783 6.783 0 0 1-1.52 2.557c-.681.697-1.547 1.24-2.6 1.626-1.05.388-2.297.582-3.738.582Zm18.257-3.864c.643 0 1.169-.049 1.578-.146.428-.116.77-.261 1.022-.436.253-.193.429-.416.526-.668.097-.252.146-.532.146-.842 0-.659-.312-1.201-.935-1.627-.623-.446-1.694-.92-3.213-1.424a28.162 28.162 0 0 1-1.986-.784 7.957 7.957 0 0 1-1.782-1.133 5.666 5.666 0 0 1-1.285-1.656c-.331-.659-.497-1.453-.497-2.382 0-.93.175-1.763.526-2.499a5.336 5.336 0 0 1 1.49-1.918c.642-.522 1.421-.92 2.337-1.19.915-.291 1.947-.437 3.096-.437 1.363 0 2.541.146 3.534.436.994.29 1.811.61 2.454.96l-1.314 3.572a11.377 11.377 0 0 0-1.9-.755c-.68-.232-1.508-.349-2.482-.349-1.09 0-1.88.156-2.366.465-.468.29-.701.746-.701 1.366 0 .368.087.678.263.93.175.251.418.484.73.697.331.194.701.378 1.11.552.428.155.896.32 1.402.494 1.052.387 1.967.774 2.746 1.162.779.368 1.422.804 1.928 1.307a4.702 4.702 0 0 1 1.168 1.772c.253.678.38 1.501.38 2.47 0 1.879-.662 3.34-1.986 4.387-1.325 1.026-3.32 1.54-5.989 1.54-.895 0-1.703-.059-2.424-.175a14.782 14.782 0 0 1-1.928-.377 12.148 12.148 0 0 1-1.431-.494c-.39-.175-.72-.34-.993-.494L49.234 80c.604.33 1.344.63 2.22.9.896.253 1.986.379 3.271.379Zm11.481 3.457V64.603h13.67v3.806h-9.113v3.951h8.091v3.72h-8.091v4.851h9.786v3.806H66.206Zm25.63.407c-1.42 0-2.648-.194-3.68-.582-1.032-.406-1.889-.958-2.57-1.656a7.024 7.024 0 0 1-1.49-2.527c-.312-.988-.467-2.072-.467-3.254V64.603h4.556v12.144c0 .814.088 1.511.263 2.092.195.562.448 1.027.76 1.395.33.348.72.6 1.168.755a4.8 4.8 0 0 0 1.52.233c1.11 0 2.005-.34 2.686-1.017.702-.678 1.052-1.83 1.052-3.458V64.603h4.557v12.522c0 1.182-.166 2.266-.497 3.254a6.783 6.783 0 0 1-1.519 2.557c-.681.697-1.548 1.24-2.6 1.626-1.05.388-2.297.582-3.738.582Zm18.112-20.54c.351.639.75 1.433 1.198 2.382.467.93.944 1.946 1.431 3.05a108.76 108.76 0 0 1 1.49 3.341l1.373 3.225 1.373-3.225c.487-1.142.973-2.256 1.46-3.34.507-1.105.984-2.122 1.432-3.051.467-.95.876-1.743 1.226-2.383h4.148c.195 1.337.37 2.838.526 4.504.175 1.646.321 3.37.438 5.17.137 1.783.253 3.574.351 5.376.117 1.8.214 3.496.292 5.084h-4.44a519.182 519.182 0 0 0-.234-6.392c-.097-2.305-.243-4.629-.438-6.972-.351.813-.74 1.714-1.168 2.701l-1.286 2.964c-.409.988-.808 1.937-1.197 2.847-.39.891-.721 1.656-.993 2.295h-3.184c-.273-.639-.604-1.404-.994-2.295-.389-.91-.798-1.86-1.226-2.847-.409-.988-.828-1.976-1.256-2.963-.429-.988-.818-1.889-1.169-2.702a170.578 170.578 0 0 0-.438 6.972 539.754 539.754 0 0 0-.234 6.392h-4.44c.078-1.588.166-3.283.263-5.084l.351-5.375c.136-1.801.282-3.525.438-5.172.175-1.665.36-3.166.555-4.503h4.352Z" fill="#000"/></svg>