<svg width="18" height="13" viewBox="0 0 18 13" fill="none" xmlns="http://www.w3.org/2000/svg">
<path d="M8.75 9.625C11.1624 9.625 13.125 8.05481 13.125 6.125C13.125 4.19519 11.1624 2.625 8.75 2.625C6.33763 2.625 4.375 4.19519 4.375 6.125C4.375 8.05481 6.33763 9.625 8.75 9.625ZM8.75 4.375C10.1728 4.375 11.375 5.1765 11.375 6.125C11.375 7.0735 10.1728 7.875 8.75 7.875C7.32725 7.875 6.125 7.0735 6.125 6.125C6.125 5.1765 7.32725 4.375 8.75 4.375Z" fill="#0F766E"/>
<path d="M0 10.5C0 11.4625 0.7875 12.25 1.75 12.25H15.75C16.7125 12.25 17.5 11.4625 17.5 10.5V1.75C17.5 0.7875 16.7125 0 15.75 0H1.75C0.7875 0 0 0.7875 0 1.75V10.5ZM15.75 10.5H14.1531C14.4174 9.75625 15.0062 9.16738 15.75 8.90313V10.5ZM15.75 1.75V3.34687C15.0062 3.08262 14.4174 2.49375 14.1531 1.75H15.75V1.75ZM1.75 1.75H3.34687C3.08262 2.49375 2.49375 3.08262 1.75 3.34687V1.75ZM1.75 5.16163C3.4615 4.81294 4.81294 3.4615 5.16163 1.75H12.3379C12.6866 3.4615 14.0381 4.81294 15.7496 5.16163V7.08794C14.0381 7.43663 12.6866 8.78806 12.3379 10.4996H5.16163C4.81294 8.78806 3.4615 7.43663 1.75 7.08794V5.16163ZM1.75 8.90313C2.49375 9.16738 3.08262 9.75625 3.34687 10.5H1.75V8.90313Z" fill="#0F766E"/>
</svg>
