<svg width="51" height="51" viewBox="0 0 51 51" fill="none" xmlns="http://www.w3.org/2000/svg">
<path d="M48.8164 38.0775C48.6372 38.0055 48.476 37.9514 48.3327 37.8794C44.3021 35.6463 41.5793 32.8368 40.0029 29.307C39.0893 27.254 39.4117 26.0653 41.1493 25.1829C42.1525 24.6786 43.1736 23.9763 44.338 23.0038C44.8933 22.5355 46.0577 21.581 45.3053 20.1583C44.535 18.7356 43.2094 18.9337 42.2779 19.2038C41.5076 19.4379 40.7552 19.6901 40.0745 19.9962C39.5371 20.2303 39.1789 20.2844 38.9997 20.1583C38.8206 20.0322 38.7489 19.6721 38.7848 19.0958C38.8922 17.4389 38.8743 15.7821 38.8385 13.9451C38.7489 8.14614 35.7574 3.75188 30.652 1.89693C25.0988 -0.120109 18.829 1.33864 15.0493 5.51679C12.2189 8.65039 11.9502 12.3243 12.0756 15.8181C12.0756 16.2683 12.1294 16.7546 12.1831 17.2408C12.2906 18.2493 12.398 19.2939 11.986 19.8521C11.4845 20.5005 10.8575 20.2303 9.89015 19.7261C9.4244 19.492 8.95866 19.2398 8.475 19.1678C7.40018 18.9877 6.30743 18.9157 5.62671 20.1043C4.87434 21.419 5.77005 22.3734 6.5045 22.9677C7.25687 23.5801 8.08091 24.1203 8.88702 24.6426C9.13781 24.8047 9.40648 24.9848 9.65727 25.1469C11.7711 26.5516 11.9144 27.0739 10.8575 29.4151C9.54982 32.3326 7.40016 34.7458 4.10406 36.997C3.78161 37.2131 3.33378 37.3932 2.90386 37.5552C1.93652 37.9334 0.825883 38.3837 1.02293 39.4462C1.25581 40.6708 2.72471 41.049 4.01449 41.3732C4.31902 41.4452 4.62358 41.5173 4.89228 41.6073C5.0535 41.6614 5.23265 41.6974 5.39387 41.7514C6.3612 42.0035 7.2927 42.2376 7.40018 43.4082C7.57932 45.2272 8.88698 45.4253 10.0155 45.3713C12.9713 45.2632 15.8554 46.1276 19.0798 48.0907C21.1757 49.3693 23.3254 49.9996 25.4571 49.9996C27.4634 49.9996 29.4518 49.4413 31.3686 48.3248C34.0377 46.776 37.298 45.1912 41.221 45.3532C42.5645 45.4073 43.3348 44.813 43.4244 43.6784C43.5139 42.4898 44.2663 42.1476 45.3411 41.8054C45.6278 41.7154 45.9143 41.6253 46.201 41.5353C46.8459 41.3372 47.5265 41.1391 48.1535 40.8509C48.2789 40.7969 48.4223 40.7429 48.5835 40.6889C49.1926 40.4727 49.9629 40.2026 49.9987 39.3201C50.0345 38.5097 49.3359 38.2576 48.8164 38.0775Z" stroke="white" stroke-width="2"/>
</svg>
