<svg width="40" height="44" viewBox="0 0 40 44" fill="none" xmlns="http://www.w3.org/2000/svg">
<path d="M29.0132 2.59771L27.9522 1H21.5314V15.3899L21.5095 29.4455C21.5204 29.55 21.5314 29.6648 21.5314 29.7693C21.5314 33.2884 18.5343 36.1601 14.8371 36.1601C11.1399 36.1601 8.14278 33.2989 8.14278 29.7693C8.14278 26.2501 11.1399 23.3784 14.8371 23.3784C15.6028 23.3784 16.3466 23.5142 17.0357 23.7439V16.7265C16.3247 16.6116 15.5918 16.549 14.8371 16.549C7.21301 16.5594 1 22.4908 1 29.7797C1 37.0686 7.21301 43 14.848 43C22.483 43 28.696 37.0686 28.696 29.7797V13.0612C31.4634 15.7031 35.0403 18.2824 39 19.1074V11.9334C34.7012 10.1164 30.4243 4.74888 29.0132 2.59771Z" stroke="white" stroke-width="2"/>
</svg>
