<svg width="18" height="18" viewBox="0 0 18 18" fill="none" xmlns="http://www.w3.org/2000/svg">
<path d="M8.75 0C3.91738 0 0 3.91738 0 8.75C0 13.5826 3.91738 17.5 8.75 17.5C13.5826 17.5 17.5 13.5826 17.5 8.75C17.5 3.91738 13.5826 0 8.75 0ZM8.75 15.75C4.89038 15.75 1.75 12.6096 1.75 8.75C1.75 4.89038 4.89038 1.75 8.75 1.75C12.6096 1.75 15.75 4.89038 15.75 8.75C15.75 12.6096 12.6096 15.75 8.75 15.75Z" fill="#0F766E"/>
<path d="M9.625 4.375H7.875V9.625H13.125V7.875H9.625V4.375Z" fill="#0F766E"/>
</svg>
